<svg width="102" height="31" viewBox="0 0 102 31" fill="none" xmlns="http://www.w3.org/2000/svg">
<path d="M26.4848 22.2275C25.4612 22.2275 24.5798 21.9858 23.8406 21.5024C23.1013 21.0191 22.5327 20.3533 22.1346 19.505C21.7366 18.6568 21.5375 17.6877 21.5375 16.5978C21.5375 15.489 21.7413 14.5104 22.1488 13.6622C22.5611 12.8092 23.1345 12.1434 23.869 11.6648C24.6082 11.1815 25.4707 10.9398 26.4564 10.9398C27.224 10.9398 27.9159 11.0819 28.5319 11.3663C29.148 11.6506 29.6526 12.0486 30.0459 12.5604C30.4393 13.0722 30.6833 13.6693 30.7781 14.3517H29.1006C28.9726 13.8541 28.6883 13.4134 28.2476 13.0296C27.8116 12.641 27.224 12.4467 26.4848 12.4467C25.8308 12.4467 25.2575 12.6173 24.7646 12.9585C24.2765 13.2949 23.8951 13.7712 23.6202 14.3872C23.3501 14.9985 23.2151 15.7164 23.2151 16.541C23.2151 17.3845 23.3477 18.119 23.6131 18.7445C23.8832 19.37 24.2623 19.8557 24.7504 20.2016C25.2432 20.5476 25.8214 20.7205 26.4848 20.7205C26.9207 20.7205 27.3164 20.6447 27.6718 20.4931C28.0272 20.3414 28.3282 20.1235 28.5746 19.8391C28.821 19.5548 28.9963 19.2136 29.1006 18.8156H30.7781C30.6833 19.46 30.4487 20.0405 30.0744 20.557C29.7048 21.0688 29.2143 21.4764 28.603 21.7796C27.9964 22.0782 27.2904 22.2275 26.4848 22.2275ZM37.9994 22.2275C37.0138 22.2275 36.149 21.9929 35.405 21.5237C34.6657 21.0546 34.0876 20.3983 33.6706 19.5548C33.2583 18.7113 33.0522 17.7257 33.0522 16.5978C33.0522 15.4605 33.2583 14.4678 33.6706 13.6195C34.0876 12.7713 34.6657 12.1126 35.405 11.6435C36.149 11.1743 37.0138 10.9398 37.9994 10.9398C38.9851 10.9398 39.8475 11.1743 40.5868 11.6435C41.3308 12.1126 41.9089 12.7713 42.3212 13.6195C42.7382 14.4678 42.9467 15.4605 42.9467 16.5978C42.9467 17.7257 42.7382 18.7113 42.3212 19.5548C41.9089 20.3983 41.3308 21.0546 40.5868 21.5237C39.8475 21.9929 38.9851 22.2275 37.9994 22.2275ZM37.9994 20.7205C38.7482 20.7205 39.3642 20.5286 39.8475 20.1448C40.3309 19.7609 40.6887 19.2563 40.9209 18.6308C41.1531 18.0052 41.2692 17.3276 41.2692 16.5978C41.2692 15.8681 41.1531 15.1881 40.9209 14.5578C40.6887 13.9276 40.3309 13.4181 39.8475 13.0296C39.3642 12.641 38.7482 12.4467 37.9994 12.4467C37.2507 12.4467 36.6347 12.641 36.1513 13.0296C35.668 13.4181 35.3102 13.9276 35.078 14.5578C34.8458 15.1881 34.7297 15.8681 34.7297 16.5978C34.7297 17.3276 34.8458 18.0052 35.078 18.6308C35.3102 19.2563 35.668 19.7609 36.1513 20.1448C36.6347 20.5286 37.2507 20.7205 37.9994 20.7205ZM47.5185 15.4321V22H45.841V11.0819H47.4616V12.7879H47.6038C47.8597 12.2335 48.2483 11.788 48.7695 11.4516C49.2908 11.1104 49.9637 10.9398 50.7882 10.9398C51.5275 10.9398 52.1743 11.0914 52.7287 11.3947C53.2832 11.6932 53.7144 12.1482 54.0224 12.7595C54.3304 13.366 54.4844 14.1337 54.4844 15.0625V22H52.8069V15.1762C52.8069 14.3185 52.5842 13.6503 52.1388 13.1717C51.6933 12.6884 51.082 12.4467 50.3049 12.4467C49.7694 12.4467 49.2908 12.5628 48.869 12.795C48.452 13.0272 48.1227 13.366 47.881 13.8115C47.6393 14.2569 47.5185 14.7971 47.5185 15.4321ZM98.3959 22.1066C98.1116 22.1066 97.8723 22.0071 97.678 21.8081C97.4885 21.609 97.3937 21.3674 97.3937 21.083C97.3937 20.7987 97.498 20.5594 97.7065 20.3651C97.915 20.1708 98.159 20.0737 98.4386 20.0737C98.7182 20.0737 98.9575 20.1732 99.1565 20.3722C99.3555 20.5713 99.4503 20.8082 99.4408 21.083C99.4361 21.2726 99.384 21.4456 99.2845 21.6019C99.1897 21.7536 99.0641 21.8768 98.9077 21.9716C98.7561 22.0616 98.5855 22.1066 98.3959 22.1066Z" fill="white"/>
<path d="M65.617 13.5271L64.1101 13.9536C64.0153 13.7025 63.8756 13.4584 63.6907 13.2215C63.5107 12.9798 63.2643 12.7808 62.9515 12.6244C62.6387 12.468 62.2383 12.3898 61.7502 12.3898C61.0821 12.3898 60.5253 12.5438 60.0798 12.8519C59.6391 13.1551 59.4188 13.5413 59.4188 14.0105C59.4188 14.4275 59.5704 14.7568 59.8737 14.9985C60.177 15.2402 60.6508 15.4416 61.2953 15.6027L62.916 16.0008C63.8921 16.2377 64.6195 16.6002 65.0981 17.0883C65.5768 17.5716 65.8161 18.1948 65.8161 18.9577C65.8161 19.5832 65.636 20.1424 65.2758 20.6352C64.9204 21.1281 64.4229 21.5166 63.7831 21.801C63.1434 22.0853 62.3994 22.2275 61.5512 22.2275C60.4376 22.2275 59.5159 21.9858 58.7861 21.5024C58.0564 21.0191 57.5944 20.313 57.4001 19.3842L58.9923 18.9862C59.1439 19.5738 59.4306 20.0145 59.8524 20.3083C60.2789 20.6021 60.8357 20.749 61.5228 20.749C62.3047 20.749 62.9254 20.5831 63.3851 20.2514C63.8495 19.9149 64.0817 19.5122 64.0817 19.043C64.0817 18.6639 63.949 18.3464 63.6836 18.0905C63.4183 17.8299 63.0107 17.6356 62.461 17.5077L60.6414 17.0812C59.6415 16.8442 58.907 16.477 58.4379 15.9794C57.9735 15.4771 57.7413 14.8492 57.7413 14.0958C57.7413 13.4797 57.9142 12.9348 58.2601 12.4609C58.6108 11.987 59.0871 11.6151 59.6889 11.3449C60.2954 11.0748 60.9826 10.9398 61.7502 10.9398C62.8307 10.9398 63.6789 11.1767 64.2949 11.6506C64.9157 12.1245 65.3564 12.75 65.617 13.5271ZM73.1103 22.2275C72.1246 22.2275 71.2598 21.9929 70.5158 21.5237C69.7766 21.0546 69.1985 20.3983 68.7814 19.5548C68.3692 18.7113 68.163 17.7257 68.163 16.5978C68.163 15.4605 68.3692 14.4678 68.7814 13.6195C69.1985 12.7713 69.7766 12.1126 70.5158 11.6435C71.2598 11.1743 72.1246 10.9398 73.1103 10.9398C74.0959 10.9398 74.9584 11.1743 75.6976 11.6435C76.4416 12.1126 77.0197 12.7713 77.432 13.6195C77.849 14.4678 78.0575 15.4605 78.0575 16.5978C78.0575 17.7257 77.849 18.7113 77.432 19.5548C77.0197 20.3983 76.4416 21.0546 75.6976 21.5237C74.9584 21.9929 74.0959 22.2275 73.1103 22.2275ZM73.1103 20.7205C73.859 20.7205 74.475 20.5286 74.9584 20.1448C75.4417 19.7609 75.7995 19.2563 76.0317 18.6308C76.2639 18.0052 76.38 17.3276 76.38 16.5978C76.38 15.8681 76.2639 15.1881 76.0317 14.5578C75.7995 13.9276 75.4417 13.4181 74.9584 13.0296C74.475 12.641 73.859 12.4467 73.1103 12.4467C72.3616 12.4467 71.7455 12.641 71.2622 13.0296C70.7788 13.4181 70.421 13.9276 70.1889 14.5578C69.9567 15.1881 69.8406 15.8681 69.8406 16.5978C69.8406 17.3276 69.9567 18.0052 70.1889 18.6308C70.421 19.2563 70.7788 19.7609 71.2622 20.1448C71.7455 20.5286 72.3616 20.7205 73.1103 20.7205ZM82.6293 7.44259V22H80.9518V7.44259H82.6293ZM90.613 22.2275C89.561 22.2275 88.6536 21.9953 87.8906 21.5309C87.1324 21.0617 86.5472 20.4078 86.1349 19.569C85.7274 18.7255 85.5236 17.7446 85.5236 16.6263C85.5236 15.5079 85.7274 14.5223 86.1349 13.6693C86.5472 12.8116 87.1206 12.1434 87.8551 11.6648C88.5943 11.1815 89.4568 10.9398 90.4424 10.9398C91.0111 10.9398 91.5726 11.0346 92.1271 11.2241C92.6815 11.4137 93.1862 11.7217 93.6411 12.1482C94.096 12.5699 94.4585 13.1291 94.7286 13.8257C94.9987 14.5223 95.1338 15.38 95.1338 16.3988V17.1096H86.7178V15.6596H93.4279C93.4279 15.0435 93.3046 14.4938 93.0582 14.0105C92.8166 13.5271 92.4706 13.1457 92.0204 12.8661C91.575 12.5865 91.049 12.4467 90.4424 12.4467C89.7743 12.4467 89.1962 12.6126 88.7081 12.9443C88.2247 13.2712 87.8527 13.6977 87.5921 14.2237C87.3315 14.7497 87.2012 15.3136 87.2012 15.9155V16.8822C87.2012 17.7067 87.3433 18.4057 87.6276 18.979C87.9167 19.5477 88.3171 19.9813 88.8289 20.2798C89.3407 20.5736 89.9354 20.7205 90.613 20.7205C91.0537 20.7205 91.4518 20.6589 91.8072 20.5357C92.1673 20.4078 92.4777 20.2182 92.7384 19.9671C92.999 19.7112 93.2004 19.3937 93.3426 19.0146L94.9632 19.4695C94.7926 20.0192 94.5059 20.5026 94.1031 20.9196C93.7003 21.3318 93.2028 21.6541 92.6104 21.8863C92.0181 22.1137 91.3523 22.2275 90.613 22.2275Z" fill="#A7CFC2"/>
<path d="M15.9553 14.8157V13.1062L14.2458 12.1086M15.9553 13.1062L14.2458 14.1038M2.27936 14.8157V13.1062L3.98886 12.1086M2.27936 13.1062L3.98886 14.1038M9.11735 17.095L10.8268 16.0975M9.11735 17.095L7.40785 16.0975M9.11735 17.095V18.8045M7.40785 22.9354L9.11735 23.933L10.8268 22.9354M9.11735 23.933V22.2235M7.40785 10.1142L9.11735 9.11739L10.8268 10.115M15.9553 18.2347V19.9442L14.2458 20.9418M3.98886 20.9418L2.27936 19.9442V18.2347" stroke="#A7CFC2" stroke-width="0.854749" stroke-linecap="round" stroke-linejoin="round"/>
</svg>
