<svg width="150" height="45" viewBox="0 0 150 45" fill="none" xmlns="http://www.w3.org/2000/svg">
<path d="M38.7621 32.3329C37.264 32.3329 35.974 31.9792 34.8921 31.2718C33.8102 30.5644 32.9779 29.5899 32.3954 28.3485C31.8128 27.1071 31.5215 25.6888 31.5215 24.0936C31.5215 22.4707 31.8197 21.0386 32.4162 19.7971C33.0195 18.5488 33.8587 17.5743 34.9337 16.8738C36.0156 16.1664 37.2779 15.8127 38.7205 15.8127C39.844 15.8127 40.8566 16.0208 41.7582 16.4369C42.6598 16.853 43.3984 17.4356 43.974 18.1846C44.5497 18.9337 44.9069 19.8075 45.0456 20.8062H42.5904C42.4032 20.078 41.987 19.433 41.342 18.8712C40.704 18.3025 39.844 18.0182 38.7621 18.0182C37.805 18.0182 36.9658 18.2679 36.2445 18.7672C35.5302 19.2596 34.9719 19.9566 34.5696 20.8582C34.1743 21.7529 33.9766 22.8036 33.9766 24.0104C33.9766 25.2449 34.1708 26.3199 34.5592 27.2354C34.9545 28.1508 35.5094 28.8617 36.2237 29.368C36.945 29.8743 37.7911 30.1274 38.7621 30.1274C39.4001 30.1274 39.9792 30.0165 40.4994 29.7945C41.0195 29.5726 41.4599 29.2536 41.8206 28.8374C42.1812 28.4213 42.4378 27.922 42.5904 27.3394H45.0456C44.9069 28.2826 44.5635 29.1322 44.0156 29.8882C43.4747 30.6372 42.7569 31.2336 41.8622 31.6775C40.9745 32.1144 39.9411 32.3329 38.7621 32.3329ZM55.6144 32.3329C54.1719 32.3329 52.9062 31.9896 51.8173 31.303C50.7354 30.6164 49.8893 29.6558 49.2789 28.4213C48.6756 27.1868 48.3739 25.7443 48.3739 24.0936C48.3739 22.4291 48.6756 20.9761 49.2789 19.7347C49.8893 18.4933 50.7354 17.5292 51.8173 16.8426C52.9062 16.156 54.1719 15.8127 55.6144 15.8127C57.057 15.8127 58.3193 16.156 59.4012 16.8426C60.4901 17.5292 61.3362 18.4933 61.9396 19.7347C62.5499 20.9761 62.855 22.4291 62.855 24.0936C62.855 25.7443 62.5499 27.1868 61.9396 28.4213C61.3362 29.6558 60.4901 30.6164 59.4012 31.303C58.3193 31.9896 57.057 32.3329 55.6144 32.3329ZM55.6144 30.1274C56.7102 30.1274 57.6118 29.8466 58.3193 29.2848C59.0267 28.723 59.5503 27.9844 59.8901 27.0689C60.23 26.1534 60.3999 25.1617 60.3999 24.0936C60.3999 23.0256 60.23 22.0303 59.8901 21.1079C59.5503 20.1855 59.0267 19.44 58.3193 18.8712C57.6118 18.3025 56.7102 18.0182 55.6144 18.0182C54.5187 18.0182 53.617 18.3025 52.9096 18.8712C52.2022 19.44 51.6786 20.1855 51.3388 21.1079C50.9989 22.0303 50.829 23.0256 50.829 24.0936C50.829 25.1617 50.9989 26.1534 51.3388 27.0689C51.6786 27.9844 52.2022 28.723 52.9096 29.2848C53.617 29.8466 54.5187 30.1274 55.6144 30.1274ZM69.5461 22.3875V32H67.091V16.0208H69.4629V18.5175H69.671C70.0455 17.7061 70.6142 17.0542 71.3771 16.5618C72.14 16.0624 73.1248 15.8127 74.3316 15.8127C75.4135 15.8127 76.3602 16.0347 77.1716 16.4785C77.9831 16.9155 78.6142 17.5813 79.065 18.4759C79.5158 19.3637 79.7412 20.4872 79.7412 21.8465V32H77.2861V22.013C77.2861 20.7577 76.9601 19.7798 76.3082 19.0793C75.6563 18.3719 74.7616 18.0182 73.6242 18.0182C72.8405 18.0182 72.14 18.1881 71.5227 18.5279C70.9124 18.8678 70.4304 19.3637 70.0767 20.0156C69.723 20.6675 69.5461 21.4582 69.5461 22.3875ZM144.008 32.156C143.592 32.156 143.242 32.0104 142.958 31.7191C142.68 31.4278 142.541 31.0741 142.541 30.658C142.541 30.2419 142.694 29.8916 142.999 29.6073C143.304 29.3229 143.662 29.1808 144.071 29.1808C144.48 29.1808 144.83 29.3264 145.121 29.6177C145.413 29.909 145.551 30.2557 145.538 30.658C145.531 30.9354 145.454 31.1886 145.309 31.4174C145.17 31.6394 144.986 31.8197 144.757 31.9584C144.535 32.0902 144.286 32.156 144.008 32.156Z" fill="white"/>
<path d="M96.0344 19.5995L93.829 20.2237C93.6903 19.8561 93.4857 19.4989 93.2152 19.1521C92.9516 18.7984 92.591 18.5071 92.1333 18.2783C91.6755 18.0494 91.0895 17.935 90.3751 17.935C89.3972 17.935 88.5823 18.1604 87.9304 18.6112C87.2854 19.055 86.9629 19.6203 86.9629 20.3069C86.9629 20.9172 87.1848 21.3992 87.6287 21.7529C88.0726 22.1066 88.7661 22.4014 89.7093 22.6372L92.0812 23.2198C93.5099 23.5665 94.5745 24.0971 95.275 24.8114C95.9755 25.5188 96.3257 26.4309 96.3257 27.5475C96.3257 28.4629 96.0622 29.2813 95.5351 30.0026C95.0149 30.7239 94.2867 31.2926 93.3504 31.7087C92.4141 32.1248 91.3253 32.3329 90.0838 32.3329C88.454 32.3329 87.1051 31.9792 86.037 31.2718C84.969 30.5644 84.2928 29.531 84.0084 28.1716L86.3387 27.5891C86.5606 28.4491 86.9802 29.0941 87.5975 29.5241C88.2217 29.9541 89.0366 30.169 90.0422 30.169C91.1866 30.169 92.0951 29.9263 92.7678 29.4408C93.4475 28.9484 93.7873 28.3589 93.7873 27.6723C93.7873 27.1175 93.5932 26.6528 93.2048 26.2783C92.8164 25.8968 92.2199 25.6125 91.4154 25.4252L88.7522 24.801C87.2889 24.4543 86.2139 23.9168 85.5273 23.1885C84.8476 22.4534 84.5078 21.5344 84.5078 20.4317C84.5078 19.5301 84.7609 18.7325 85.2672 18.039C85.7804 17.3455 86.4774 16.801 87.3582 16.4057C88.2459 16.0104 89.2516 15.8127 90.3751 15.8127C91.9564 15.8127 93.1978 16.1595 94.0994 16.853C95.008 17.5466 95.653 18.4621 96.0344 19.5995ZM107.001 32.3329C105.559 32.3329 104.293 31.9896 103.204 31.303C102.122 30.6164 101.276 29.6558 100.666 28.4213C100.062 27.1868 99.7607 25.7443 99.7607 24.0936C99.7607 22.4291 100.062 20.9761 100.666 19.7347C101.276 18.4933 102.122 17.5292 103.204 16.8426C104.293 16.156 105.559 15.8127 107.001 15.8127C108.444 15.8127 109.706 16.156 110.788 16.8426C111.877 17.5292 112.723 18.4933 113.326 19.7347C113.937 20.9761 114.242 22.4291 114.242 24.0936C114.242 25.7443 113.937 27.1868 113.326 28.4213C112.723 29.6558 111.877 30.6164 110.788 31.303C109.706 31.9896 108.444 32.3329 107.001 32.3329ZM107.001 30.1274C108.097 30.1274 108.999 29.8466 109.706 29.2848C110.413 28.723 110.937 27.9844 111.277 27.0689C111.617 26.1534 111.787 25.1617 111.787 24.0936C111.787 23.0256 111.617 22.0303 111.277 21.1079C110.937 20.1855 110.413 19.44 109.706 18.8712C108.999 18.3025 108.097 18.0182 107.001 18.0182C105.905 18.0182 105.004 18.3025 104.296 18.8712C103.589 19.44 103.065 20.1855 102.726 21.1079C102.386 22.0303 102.216 23.0256 102.216 24.0936C102.216 25.1617 102.386 26.1534 102.726 27.0689C103.065 27.9844 103.589 28.723 104.296 29.2848C105.004 29.8466 105.905 30.1274 107.001 30.1274ZM120.933 10.6944V32H118.478V10.6944H120.933ZM132.618 32.3329C131.078 32.3329 129.75 31.9931 128.633 31.3134C127.523 30.6268 126.667 29.6697 126.064 28.4421C125.467 27.2076 125.169 25.772 125.169 24.1352C125.169 22.4985 125.467 21.0559 126.064 19.8075C126.667 18.5522 127.506 17.5743 128.581 16.8738C129.663 16.1664 130.925 15.8127 132.368 15.8127C133.2 15.8127 134.022 15.9514 134.833 16.2289C135.645 16.5063 136.383 16.9571 137.049 17.5813C137.715 18.1985 138.246 19.0169 138.641 20.0364C139.036 21.0559 139.234 22.3112 139.234 23.8023V24.8426H126.917V22.7204H136.737C136.737 21.8188 136.557 21.0143 136.196 20.3069C135.843 19.5995 135.336 19.0412 134.677 18.632C134.025 18.2228 133.256 18.0182 132.368 18.0182C131.39 18.0182 130.544 18.2609 129.83 18.7464C129.122 19.225 128.578 19.8491 128.196 20.619C127.815 21.3888 127.624 22.2141 127.624 23.0949V24.5097C127.624 25.7165 127.832 26.7395 128.248 27.5787C128.671 28.4109 129.257 29.0455 130.006 29.4824C130.755 29.9124 131.626 30.1274 132.618 30.1274C133.263 30.1274 133.845 30.0373 134.365 29.857C134.892 29.6697 135.347 29.3923 135.728 29.0247C136.11 28.6502 136.404 28.1855 136.612 27.6307L138.984 28.2965C138.735 29.101 138.315 29.8084 137.725 30.4187C137.136 31.0221 136.408 31.4937 135.541 31.8335C134.674 32.1665 133.699 32.3329 132.618 32.3329Z" fill="#A7CFC2"/>
<path d="M23.3515 21.6836V19.1816L20.8496 17.7216M23.3515 19.1816L20.8496 20.6417M3.33594 21.6836V19.1816L5.83789 17.7216M3.33594 19.1816L5.83789 20.6417M13.3437 25.0195L15.8457 23.5595M13.3437 25.0195L10.8418 23.5595M13.3437 25.0195V27.5215M10.8418 33.5673L13.3437 35.0273L15.8457 33.5673M13.3437 35.0273V32.5254M10.8418 14.8027L13.3437 13.3438L15.8457 14.8038M23.3515 26.6875V29.1894L20.8496 30.6495M5.83789 30.6495L3.33594 29.1894V26.6875" stroke="#A7CFC2" stroke-width="1.25098" stroke-linecap="round" stroke-linejoin="round"/>
</svg>
