<svg width="81" height="18" viewBox="0 0 81 18" fill="none" xmlns="http://www.w3.org/2000/svg">
<g clip-path="url(#clip0_1455_10952)">
<path d="M5.97081 16.3047C4.94724 16.3047 4.06584 16.063 3.32659 15.5796C2.58735 15.0963 2.0187 14.4305 1.62065 13.5823C1.22259 12.734 1.02357 11.765 1.02357 10.675C1.02357 9.56618 1.22733 8.58764 1.63486 7.7394C2.04713 6.88643 2.62052 6.22064 3.35503 5.74202C4.09427 5.25867 4.95672 5.017 5.94238 5.017C6.71005 5.017 7.40191 5.15916 8.01794 5.44348C8.63398 5.72781 9.13865 6.12586 9.53197 6.63765C9.92528 7.14943 10.1693 7.74651 10.2641 8.42889H8.58659C8.45865 7.93132 8.17432 7.49062 7.73362 7.10678C7.29765 6.7182 6.71005 6.52392 5.97081 6.52392C5.31686 6.52392 4.74348 6.69451 4.25065 7.0357C3.76256 7.37215 3.38109 7.84839 3.10624 8.46443C2.83613 9.07573 2.70108 9.79364 2.70108 10.6182C2.70108 11.4617 2.83376 12.1962 3.09913 12.8217C3.36924 13.4472 3.74834 13.9329 4.23643 14.2789C4.72926 14.6248 5.30739 14.7978 5.97081 14.7978C6.40677 14.7978 6.80246 14.7219 7.15786 14.5703C7.51327 14.4187 7.81418 14.2007 8.06059 13.9163C8.30701 13.632 8.48234 13.2908 8.58659 12.8928H10.2641C10.1693 13.5372 9.93476 14.1177 9.5604 14.6343C9.19078 15.146 8.70032 15.5536 8.08902 15.8569C7.48247 16.1554 6.77639 16.3047 5.97081 16.3047ZM17.4855 16.3047C16.4998 16.3047 15.635 16.0701 14.891 15.601C14.1518 15.1318 13.5736 14.4755 13.1566 13.632C12.7444 12.7885 12.5382 11.8029 12.5382 10.675C12.5382 9.53775 12.7444 8.54499 13.1566 7.69675C13.5736 6.84852 14.1518 6.18983 14.891 5.7207C15.635 5.25157 16.4998 5.017 17.4855 5.017C18.4711 5.017 19.3336 5.25157 20.0728 5.7207C20.8168 6.18983 21.3949 6.84852 21.8072 7.69675C22.2242 8.54499 22.4327 9.53775 22.4327 10.675C22.4327 11.8029 22.2242 12.7885 21.8072 13.632C21.3949 14.4755 20.8168 15.1318 20.0728 15.601C19.3336 16.0701 18.4711 16.3047 17.4855 16.3047ZM17.4855 14.7978C18.2342 14.7978 18.8502 14.6058 19.3336 14.222C19.8169 13.8382 20.1747 13.3335 20.4069 12.708C20.6391 12.0825 20.7552 11.4048 20.7552 10.675C20.7552 9.94528 20.6391 9.26528 20.4069 8.63502C20.1747 8.00477 19.8169 7.49536 19.3336 7.10678C18.8502 6.7182 18.2342 6.52392 17.4855 6.52392C16.7367 6.52392 16.1207 6.7182 15.6374 7.10678C15.154 7.49536 14.7962 8.00477 14.564 8.63502C14.3318 9.26528 14.2157 9.94528 14.2157 10.675C14.2157 11.4048 14.3318 12.0825 14.564 12.708C14.7962 13.3335 15.154 13.8382 15.6374 14.222C16.1207 14.6058 16.7367 14.7978 17.4855 14.7978ZM27.0045 9.50932V16.0772H25.327V5.15916H26.9477V6.86511H27.0898C27.3457 6.31067 27.7343 5.86523 28.2555 5.52878C28.7768 5.18759 29.4497 5.017 30.2742 5.017C31.0135 5.017 31.6603 5.16864 32.2148 5.47192C32.7692 5.77046 33.2004 6.22538 33.5084 6.83667C33.8165 7.44323 33.9705 8.21091 33.9705 9.1397V16.0772H32.293V9.25343C32.293 8.39572 32.0702 7.72756 31.6248 7.24894C31.1793 6.76559 30.5681 6.52392 29.7909 6.52392C29.2554 6.52392 28.7768 6.64001 28.3551 6.87221C27.9381 7.10441 27.6087 7.44323 27.367 7.88867C27.1254 8.33411 27.0045 8.87433 27.0045 9.50932ZM77.882 16.1838C77.5976 16.1838 77.3583 16.0843 77.164 15.8853C76.9745 15.6863 76.8797 15.4446 76.8797 15.1603C76.8797 14.8759 76.984 14.6366 77.1925 14.4423C77.401 14.2481 77.645 14.1509 77.9246 14.1509C78.2042 14.1509 78.4435 14.2504 78.6425 14.4495C78.8416 14.6485 78.9363 14.8854 78.9269 15.1603C78.9221 15.3498 78.87 15.5228 78.7705 15.6792C78.6757 15.8308 78.5501 15.954 78.3938 16.0488C78.2421 16.1388 78.0715 16.1838 77.882 16.1838Z" fill="white"/>
<path d="M45.1031 7.60435L43.5961 8.03083C43.5014 7.77968 43.3616 7.53564 43.1768 7.2987C42.9967 7.05702 42.7503 6.858 42.4375 6.70162C42.1248 6.54524 41.7243 6.46705 41.2363 6.46705C40.5681 6.46705 40.0113 6.62106 39.5658 6.92908C39.1251 7.23236 38.9048 7.61856 38.9048 8.0877C38.9048 8.50471 39.0564 8.83405 39.3597 9.07573C39.663 9.3174 40.1369 9.5188 40.7813 9.67991L42.402 10.078C43.3782 10.3149 44.1056 10.6774 44.5842 11.1655C45.0628 11.6489 45.3021 12.272 45.3021 13.0349C45.3021 13.6605 45.122 14.2196 44.7619 14.7125C44.4065 15.2053 43.9089 15.5939 43.2692 15.8782C42.6294 16.1625 41.8855 16.3047 41.0372 16.3047C39.9236 16.3047 39.0019 16.063 38.2722 15.5796C37.5424 15.0963 37.0804 14.3902 36.8861 13.4614L38.4783 13.0634C38.6299 13.651 38.9166 14.0917 39.3384 14.3855C39.7649 14.6793 40.3217 14.8262 41.0088 14.8262C41.7907 14.8262 42.4115 14.6603 42.8711 14.3286C43.3355 13.9922 43.5677 13.5894 43.5677 13.1202C43.5677 12.7411 43.435 12.4236 43.1697 12.1678C42.9043 11.9071 42.4968 11.7128 41.9471 11.5849L40.1274 11.1584C39.1275 10.9215 38.393 10.5542 37.9239 10.0566C37.4595 9.55434 37.2273 8.92646 37.2273 8.173C37.2273 7.55696 37.4002 7.01201 37.7462 6.53813C38.0968 6.06426 38.5731 5.69227 39.1749 5.42216C39.7815 5.15205 40.4686 5.017 41.2363 5.017C42.3167 5.017 43.1649 5.25393 43.781 5.72781C44.4017 6.20168 44.8424 6.8272 45.1031 7.60435ZM52.5963 16.3047C51.6106 16.3047 50.7458 16.0701 50.0018 15.601C49.2626 15.1318 48.6845 14.4755 48.2675 13.632C47.8552 12.7885 47.6491 11.8029 47.6491 10.675C47.6491 9.53775 47.8552 8.54499 48.2675 7.69675C48.6845 6.84852 49.2626 6.18983 50.0018 5.7207C50.7458 5.25157 51.6106 5.017 52.5963 5.017C53.582 5.017 54.4444 5.25157 55.1837 5.7207C55.9276 6.18983 56.5058 6.84852 56.918 7.69675C57.335 8.54499 57.5435 9.53775 57.5435 10.675C57.5435 11.8029 57.335 12.7885 56.918 13.632C56.5058 14.4755 55.9276 15.1318 55.1837 15.601C54.4444 16.0701 53.582 16.3047 52.5963 16.3047ZM52.5963 14.7978C53.345 14.7978 53.9611 14.6058 54.4444 14.222C54.9278 13.8382 55.2855 13.3335 55.5177 12.708C55.7499 12.0825 55.866 11.4048 55.866 10.675C55.866 9.94528 55.7499 9.26528 55.5177 8.63502C55.2855 8.00477 54.9278 7.49536 54.4444 7.10678C53.9611 6.7182 53.345 6.52392 52.5963 6.52392C51.8476 6.52392 51.2315 6.7182 50.7482 7.10678C50.2648 7.49536 49.9071 8.00477 49.6749 8.63502C49.4427 9.26528 49.3266 9.94528 49.3266 10.675C49.3266 11.4048 49.4427 12.0825 49.6749 12.708C49.9071 13.3335 50.2648 13.8382 50.7482 14.222C51.2315 14.6058 51.8476 14.7978 52.5963 14.7978ZM62.1154 1.51981V16.0772H60.4378V1.51981H62.1154ZM70.0991 16.3047C69.0471 16.3047 68.1396 16.0725 67.3767 15.6081C66.6185 15.1389 66.0332 14.485 65.621 13.6462C65.2134 12.8027 65.0097 11.8218 65.0097 10.7035C65.0097 9.58514 65.2134 8.59948 65.621 7.74651C66.0332 6.8888 66.6066 6.22064 67.3411 5.74202C68.0804 5.25867 68.9428 5.017 69.9285 5.017C70.4971 5.017 71.0587 5.11177 71.6131 5.30132C72.1675 5.49087 72.6722 5.79889 73.1271 6.22538C73.582 6.64712 73.9446 7.20629 74.2147 7.90289C74.4848 8.59948 74.6198 9.45719 74.6198 10.476V11.1868H66.2038V9.73678H72.9139C72.9139 9.12074 72.7907 8.57105 72.5443 8.0877C72.3026 7.60435 71.9567 7.22288 71.5065 6.94329C71.061 6.66371 70.535 6.52392 69.9285 6.52392C69.2603 6.52392 68.6822 6.68977 68.1941 7.02148C67.7107 7.34846 67.3388 7.77494 67.0781 8.30094C66.8175 8.82694 66.6872 9.39085 66.6872 9.99267V10.9594C66.6872 11.7839 66.8293 12.4829 67.1137 13.0563C67.4027 13.6249 67.8031 14.0585 68.3149 14.357C68.8267 14.6508 69.4214 14.7978 70.0991 14.7978C70.5398 14.7978 70.9378 14.7361 71.2932 14.6129C71.6534 14.485 71.9638 14.2954 72.2244 14.0443C72.485 13.7884 72.6864 13.4709 72.8286 13.0918L74.4492 13.5467C74.2786 14.0964 73.9919 14.5798 73.5891 14.9968C73.1864 15.409 72.6888 15.7313 72.0964 15.9635C71.5041 16.1909 70.8383 16.3047 70.0991 16.3047Z" fill="#A7CFC2"/>
</g>
<defs>
<clipPath id="clip0_1455_10952">
<rect width="81" height="18" fill="white"/>
</clipPath>
</defs>
</svg>
